#N canvas 267 23 1005 665 10;
#X declare -lib mrpeach;
#X obj 251 231 import mrpeach;
#X obj 95 47 mrpeach/slipenc 65536;
#X obj 304 58 loadbang;
#X obj 299 22 bng 15 250 50 0 empty empty empty 17 7 0 10 -262144 -1
-1;
#X obj 76 16 inlet;
#X obj 74 240 outlet;
#X obj 261 46 inlet;
#X obj 57 157 bng 15 250 50 0 empty empty empty 17 7 0 10 -262144 -1
-1;
#X obj 94 130 comport;
#X obj 49 99 print;
#X obj 301 199 print errors;
#X obj 226 19 bng 15 250 50 0 empty empty empty 17 7 0 10 -262144 -1
-1;
#X msg 296 142 baud 9600;
#X msg 153 96 devicename /dev/cu.usbmodem2405841 \, pollintervall 1
;
#X obj 95 179 slipdec 65536;
#X obj 177 259 unpackOSC;
#X obj 178 293 routeOSC /hole;
#X obj 178 372 print yes;
#X floatatom 317 363 5 0 0 0 - - -;
#X obj 317 332 unpack 0 0;
#X floatatom 383 361 5 0 0 0 - - -;
#X obj 100 732 dac~;
#X obj 316 392 change;
#X obj 316 421 bng 15 250 50 0 empty empty empty 17 7 0 10 -262144
-1 -1;
#X msg 152 657 start;
#X msg 34 636 open longcut1.wav;
#X obj 97 684 readsf~ 2;
#X floatatom 315 482 5 0 0 0 - - -;
#X obj 316 450 random 7;
#X obj 123 521 select 0;
#X obj 122 547 bng 15 250 50 0 empty empty empty 17 7 0 10 -262144
-1 -1;
#X obj 184 547 bng 15 250 50 0 empty empty empty 17 7 0 10 -262144
-1 -1;
#X obj 243 547 bng 15 250 50 0 empty empty empty 17 7 0 10 -262144
-1 -1;
#X obj 301 547 bng 15 250 50 0 empty empty empty 17 7 0 10 -262144
-1 -1;
#X obj 358 546 bng 15 250 50 0 empty empty empty 17 7 0 10 -262144
-1 -1;
#X obj 416 545 bng 15 250 50 0 empty empty empty 17 7 0 10 -262144
-1 -1;
#X obj 474 544 bng 15 250 50 0 empty empty empty 17 7 0 10 -262144
-1 -1;
#X obj 533 544 bng 15 250 50 0 empty empty empty 17 7 0 10 -262144
-1 -1;
#X obj 185 521 select 1;
#X obj 244 521 select 2;
#X obj 302 521 select 3;
#X obj 359 520 select 4;
#X obj 417 519 select 5;
#X obj 475 518 select 6;
#X obj 534 518 select 7;
#X obj 514 381 pitch;
#X obj 159 603 bng 15 250 50 0 empty empty empty 17 7 0 10 -262144
-1 -1;
#X obj 281 719 dac~;
#X msg 333 644 start;
#X obj 278 671 readsf~ 2;
#X obj 340 590 bng 15 250 50 0 empty empty empty 17 7 0 10 -262144
-1 -1;
#X msg 215 623 open longcut2.wav;
#X obj 450 718 dac~;
#X msg 502 643 start;
#X obj 447 670 readsf~ 2;
#X obj 509 589 bng 15 250 50 0 empty empty empty 17 7 0 10 -262144
-1 -1;
#X obj 622 706 dac~;
#X msg 674 631 start;
#X obj 619 658 readsf~ 2;
#X obj 681 577 bng 15 250 50 0 empty empty empty 17 7 0 10 -262144
-1 -1;
#X obj 792 701 dac~;
#X msg 844 626 start;
#X obj 789 653 readsf~ 2;
#X obj 851 572 bng 15 250 50 0 empty empty empty 17 7 0 10 -262144
-1 -1;
#X obj 721 559 dac~;
#X msg 773 484 start;
#X obj 718 511 readsf~ 2;
#X obj 780 430 bng 15 250 50 0 empty empty empty 17 7 0 10 -262144
-1 -1;
#X obj 873 469 dac~;
#X msg 925 394 start;
#X obj 870 421 readsf~ 2;
#X obj 932 340 bng 15 250 50 0 empty empty empty 17 7 0 10 -262144
-1 -1;
#X obj 666 386 dac~;
#X msg 718 311 start;
#X obj 663 338 readsf~ 2;
#X obj 725 257 bng 15 250 50 0 empty empty empty 17 7 0 10 -262144
-1 -1;
#X msg 369 610 open long_curve_cut.wav;
#X msg 556 610 open longcut3.wav;
#X msg 726 605 open punch3.wav;
#X msg 655 463 open short_cut2.wav;
#X msg 807 373 open shortcut1.wav;
#X msg 600 290 open shortcut2.wav;
#X obj 470 283 noise~;
#X obj 633 179 delay~;
#X connect 1 0 8 0;
#X connect 2 0 13 0;
#X connect 2 0 12 0;
#X connect 3 0 2 0;
#X connect 4 0 1 0;
#X connect 6 0 8 0;
#X connect 8 0 7 0;
#X connect 8 0 14 0;
#X connect 8 1 10 0;
#X connect 11 0 8 0;
#X connect 12 0 8 0;
#X connect 13 0 8 0;
#X connect 14 0 5 0;
#X connect 14 0 15 0;
#X connect 15 0 16 0;
#X connect 16 0 19 0;
#X connect 18 0 22 0;
#X connect 19 0 18 0;
#X connect 19 1 20 0;
#X connect 22 0 23 0;
#X connect 23 0 28 0;
#X connect 24 0 26 0;
#X connect 25 0 26 0;
#X connect 26 0 21 0;
#X connect 26 1 21 1;
#X connect 27 0 29 0;
#X connect 27 0 38 0;
#X connect 27 0 39 0;
#X connect 27 0 40 0;
#X connect 27 0 41 0;
#X connect 27 0 42 0;
#X connect 27 0 43 0;
#X connect 27 0 44 0;
#X connect 28 0 27 0;
#X connect 29 0 30 0;
#X connect 30 0 25 0;
#X connect 30 0 46 0;
#X connect 31 0 51 0;
#X connect 31 0 50 0;
#X connect 32 0 76 0;
#X connect 32 0 55 0;
#X connect 33 0 77 0;
#X connect 33 0 59 0;
#X connect 34 0 78 0;
#X connect 34 0 63 0;
#X connect 35 0 79 0;
#X connect 35 0 67 0;
#X connect 36 0 80 0;
#X connect 36 0 71 0;
#X connect 37 0 81 0;
#X connect 37 0 75 0;
#X connect 38 0 31 0;
#X connect 39 0 32 0;
#X connect 40 0 33 0;
#X connect 41 0 34 0;
#X connect 42 0 35 0;
#X connect 43 0 36 0;
#X connect 44 0 37 0;
#X connect 46 0 24 0;
#X connect 48 0 49 0;
#X connect 49 0 47 0;
#X connect 49 1 47 1;
#X connect 50 0 48 0;
#X connect 51 0 49 0;
#X connect 53 0 54 0;
#X connect 54 0 52 0;
#X connect 54 1 52 1;
#X connect 55 0 53 0;
#X connect 57 0 58 0;
#X connect 58 0 56 0;
#X connect 58 1 56 1;
#X connect 59 0 57 0;
#X connect 61 0 62 0;
#X connect 62 0 60 0;
#X connect 62 1 60 1;
#X connect 63 0 61 0;
#X connect 65 0 66 0;
#X connect 66 0 64 0;
#X connect 66 1 64 1;
#X connect 67 0 65 0;
#X connect 69 0 70 0;
#X connect 70 0 68 0;
#X connect 70 1 68 1;
#X connect 71 0 69 0;
#X connect 73 0 74 0;
#X connect 74 0 72 0;
#X connect 74 1 72 1;
#X connect 75 0 73 0;
#X connect 76 0 54 0;
#X connect 77 0 58 0;
#X connect 78 0 62 0;
#X connect 79 0 66 0;
#X connect 80 0 70 0;
#X connect 81 0 74 0;
